<?xml version="1.0" encoding="UTF-8" standalone="no"?>
<!DOCTYPE svg PUBLIC "-//W3C//DTD SVG 1.0//EN"
 "http://www.w3.org/TR/2001/REC-SVG-20010904/DTD/svg10.dtd" [
 <!ATTLIST svg xmlns:xlink CDATA #FIXED "http://www.w3.org/1999/xlink">
]>
<!-- Generated by Graphviz version 2.20.2 (Tue Mar &#160;2 21:46:26 UTC 2010)
     For user: (nerea) nerea,,, -->
<!-- Title: models_diagram Pages: 1 -->
<svg width="2861pt" height="504pt"
 viewBox="0.00 0.00 2861.00 504.00" xmlns="http://www.w3.org/2000/svg" xmlns:xlink="http://www.w3.org/1999/xlink">
<g id="graph0" class="graph" transform="scale(1 1) rotate(0) translate(4 500)">
<title>models_diagram</title>
<polygon style="fill:white;stroke:white;" points="-4,4 -4,-500 2857,-500 2857,4 -4,4"/>
<!-- _diagram_info -->
<g id="node1" class="node"><title>_diagram_info</title>
<text text-anchor="start" x="350" y="-479.8" style="font-family:Times New Roman;font-size:13.00;">Models diagram</text>
<text text-anchor="start" x="350" y="-462.8" style="font-family:Times New Roman;font-size:13.00;">Date: Jan 06 2013 &#45; 13:08</text>
<text text-anchor="start" x="350" y="-445.8" style="font-family:Times New Roman;font-size:13.00;">Migration version: 104</text>
<text text-anchor="start" x="350" y="-428.8" style="font-family:Times New Roman;font-size:13.00;">Generated by RailRoady 1.1.0</text>
<text text-anchor="start" x="350" y="-411.8" style="font-family:Times New Roman;font-size:13.00;">http://railroady.prestonlee.com</text>
</g>
<!-- Category -->
<g id="node2" class="node"><title>Category</title>
<ellipse style="fill:none;stroke:black;" cx="232" cy="-256" rx="54.8957" ry="18"/>
<text text-anchor="middle" x="232" y="-251.9" style="font-family:Times New Roman;font-size:14.00;">Category</text>
</g>
<!-- Category&#45;&gt;Category -->
<g id="edge2" class="edge"><title>Category&#45;&gt;Category</title>
<path style="fill:none;stroke:#0fcb54;" d="M291,-262C300,-261 305,-259 305,-256 305,-253 301,-251 293,-250"/>
<ellipse style="fill:none;stroke:#0fcb54;" cx="286.969" cy="-262.504" rx="4.00001" ry="4.00001"/>
<polygon style="fill:#0fcb54;stroke:#0fcb54;" points="292.95,-249.995 283.448,-244.522 287.975,-249.498 283,-249 283,-249 283,-249 287.975,-249.498 282.552,-253.478 292.95,-249.995 292.95,-249.995"/>
<text text-anchor="middle" x="333" y="-251.9" style="font-family:Times New Roman;font-size:14.00;">children</text>
</g>
<!-- Categorization -->
<g id="node8" class="node"><title>Categorization</title>
<ellipse style="fill:none;stroke:black;" cx="82" cy="-92" rx="81.9961" ry="18"/>
<text text-anchor="middle" x="82" y="-87.9" style="font-family:Times New Roman;font-size:14.00;">Categorization</text>
</g>
<!-- Category&#45;&gt;Categorization -->
<g id="edge4" class="edge"><title>Category&#45;&gt;Categorization</title>
<path style="fill:none;stroke:#bac009;" d="M210,-232C182,-202 133,-149 105,-118"/>
<ellipse style="fill:none;stroke:#bac009;" cx="213.172" cy="-235.172" rx="4.00002" ry="4.00002"/>
<polygon style="fill:#bac009;stroke:#bac009;" points="104.585,-117.526 101.387,-107.037 101.293,-113.763 98,-110 98,-110 98,-110 101.293,-113.763 94.6134,-112.963 104.585,-117.526 104.585,-117.526"/>
</g>
<!-- Article -->
<g id="node9" class="node"><title>Article</title>
<ellipse style="fill:none;stroke:black;" cx="580" cy="-182" rx="41.1906" ry="18"/>
<text text-anchor="middle" x="580" y="-177.9" style="font-family:Times New Roman;font-size:14.00;">Article</text>
</g>
<!-- Category&#45;&gt;Article -->
<g id="edge6" class="edge"><title>Category&#45;&gt;Article</title>
<path style="fill:none;stroke:#ca85c2;" d="M288,-244C356,-230 469,-205 533,-192"/>
<polygon style="fill:#ca85c2;stroke:#ca85c2;" points="287.806,-244.039 277.117,-241.587 282.903,-245.019 278,-246 278,-246 278,-246 282.903,-245.019 278.883,-250.413 287.806,-244.039 287.806,-244.039"/>
<polygon style="fill:#ca85c2;stroke:#ca85c2;" points="533.194,-191.961 543.883,-194.413 538.097,-190.981 543,-190 543,-190 543,-190 538.097,-190.981 542.117,-185.587 533.194,-191.961 533.194,-191.961"/>
</g>
<!-- Profile -->
<g id="node3" class="node"><title>Profile</title>
<ellipse style="fill:none;stroke:black;" cx="896" cy="-346" rx="41.1906" ry="18"/>
<text text-anchor="middle" x="896" y="-341.9" style="font-family:Times New Roman;font-size:14.00;">Profile</text>
</g>
<!-- Redirection -->
<g id="node4" class="node"><title>Redirection</title>
<ellipse style="fill:none;stroke:black;" cx="555" cy="-256" rx="64.1231" ry="18"/>
<text text-anchor="middle" x="555" y="-251.9" style="font-family:Times New Roman;font-size:14.00;">Redirection</text>
</g>
<!-- EmailNotifier -->
<g id="node5" class="node"><title>EmailNotifier</title>
<polygon style="fill:none;stroke:black;" points="1093,-364 989,-364 989,-328 1093,-328 1093,-364"/>
<text text-anchor="middle" x="1041" y="-341.9" style="font-family:Times New Roman;font-size:14.00;">EmailNotifier</text>
</g>
<!-- Trackback -->
<g id="node6" class="node"><title>Trackback</title>
<ellipse style="fill:none;stroke:black;" cx="825" cy="-18" rx="57.8712" ry="18"/>
<text text-anchor="middle" x="825" y="-13.9" style="font-family:Times New Roman;font-size:14.00;">Trackback</text>
</g>
<!-- Redirect -->
<g id="node7" class="node"><title>Redirect</title>
<ellipse style="fill:none;stroke:black;" cx="620" cy="-449" rx="50.0315" ry="18"/>
<text text-anchor="middle" x="620" y="-444.9" style="font-family:Times New Roman;font-size:14.00;">Redirect</text>
</g>
<!-- Redirect&#45;&gt;Redirection -->
<g id="edge12" class="edge"><title>Redirect&#45;&gt;Redirection</title>
<path style="fill:none;stroke:#a27dc9;" d="M611,-423C599,-386 577,-321 564,-284"/>
<ellipse style="fill:none;stroke:#a27dc9;" cx="612.595" cy="-427.255" rx="4.00001" ry="4.00001"/>
<polygon style="fill:#a27dc9;stroke:#a27dc9;" points="563.874,-283.578 565.31,-272.707 562.437,-278.789 561,-274 561,-274 561,-274 562.437,-278.789 556.69,-275.293 563.874,-283.578 563.874,-283.578"/>
</g>
<!-- Content -->
<g id="node12" class="node"><title>Content</title>
<ellipse style="fill:none;stroke:black;" cx="787" cy="-346" rx="50.0315" ry="18"/>
<text text-anchor="middle" x="787" y="-341.9" style="font-family:Times New Roman;font-size:14.00;">Content</text>
</g>
<!-- Redirect&#45;&gt;Content -->
<g id="edge14" class="edge"><title>Redirect&#45;&gt;Content</title>
<path style="fill:none;stroke:#aaa127;" d="M654,-428C683,-410 724,-385 753,-367"/>
<polygon style="fill:#aaa127;stroke:#aaa127;" points="653.742,-428.144 642.815,-429.066 649.371,-430.572 645,-433 645,-433 645,-433 649.371,-430.572 647.185,-436.934 653.742,-428.144 653.742,-428.144"/>
<polygon style="fill:#aaa127;stroke:#aaa127;" points="753.258,-366.856 764.185,-365.934 757.629,-364.428 762,-362 762,-362 762,-362 757.629,-364.428 759.815,-358.066 753.258,-366.856 753.258,-366.856"/>
</g>
<!-- Article&#45;&gt;Trackback -->
<g id="edge32" class="edge"><title>Article&#45;&gt;Trackback</title>
<path style="fill:none;stroke:#4f418c;" d="M628,-176C694,-168 804,-153 810,-146 817,-139 821,-82 823,-46"/>
<ellipse style="fill:none;stroke:#4f418c;" cx="623.969" cy="-176.504" rx="4.00001" ry="4.00001"/>
<polygon style="fill:#4f418c;stroke:#4f418c;" points="823.005,-45.9504 828.478,-36.4478 823.502,-40.9752 824,-36 824,-36 824,-36 823.502,-40.9752 819.522,-35.5522 823.005,-45.9504 823.005,-45.9504"/>
<text text-anchor="middle" x="896" y="-87.9" style="font-family:Times New Roman;font-size:14.00;">published_trackbacks</text>
</g>
<!-- Article&#45;&gt;Trackback -->
<g id="edge20" class="edge"><title>Article&#45;&gt;Trackback</title>
<path style="fill:none;stroke:#271b14;" d="M628,-177C680,-171 767,-160 839,-146 843,-145 973,-113 975,-110 1005,-70 938,-44 884,-30"/>
<ellipse style="fill:none;stroke:#271b14;" cx="623.969" cy="-177.504" rx="4.00001" ry="4.00001"/>
<polygon style="fill:#271b14;stroke:#271b14;" points="883.806,-29.9612 874.883,-23.5874 878.903,-28.9806 874,-28 874,-28 874,-28 878.903,-28.9806 873.117,-32.4126 883.806,-29.9612 883.806,-29.9612"/>
</g>
<!-- Article&#45;&gt;Categorization -->
<g id="edge26" class="edge"><title>Article&#45;&gt;Categorization</title>
<path style="fill:none;stroke:#6e3825;" d="M532,-177C476,-171 384,-160 305,-146 250,-136 188,-120 144,-109"/>
<ellipse style="fill:none;stroke:#6e3825;" cx="536.031" cy="-177.504" rx="4.00001" ry="4.00001"/>
<polygon style="fill:#6e3825;stroke:#6e3825;" points="143.578,-108.874 135.293,-101.69 138.789,-107.437 134,-106 134,-106 134,-106 138.789,-107.437 132.707,-110.31 143.578,-108.874 143.578,-108.874"/>
</g>
<!-- Tag -->
<g id="node10" class="node"><title>Tag</title>
<ellipse style="fill:none;stroke:black;" cx="209" cy="-92" rx="27.1004" ry="18"/>
<text text-anchor="middle" x="209" y="-87.9" style="font-family:Times New Roman;font-size:14.00;">Tag</text>
</g>
<!-- Article&#45;&gt;Tag -->
<g id="edge36" class="edge"><title>Article&#45;&gt;Tag</title>
<path style="fill:none;stroke:#878282;" d="M530,-176C464,-167 343,-147 245,-110 243,-109 241,-108 239,-107"/>
<polygon style="fill:#878282;stroke:#878282;" points="530.05,-176.005 539.552,-181.478 535.025,-176.502 540,-177 540,-177 540,-177 535.025,-176.502 540.448,-172.522 530.05,-176.005 530.05,-176.005"/>
<polygon style="fill:#878282;stroke:#878282;" points="239.138,-107.061 231.828,-98.8878 234.569,-105.031 230,-103 230,-103 230,-103 234.569,-105.031 228.172,-107.112 239.138,-107.061 239.138,-107.061"/>
</g>
<!-- Ping -->
<g id="node11" class="node"><title>Ping</title>
<ellipse style="fill:none;stroke:black;" cx="286" cy="-92" rx="31.9646" ry="18"/>
<text text-anchor="middle" x="286" y="-87.9" style="font-family:Times New Roman;font-size:14.00;">Ping</text>
</g>
<!-- Article&#45;&gt;Ping -->
<g id="edge18" class="edge"><title>Article&#45;&gt;Ping</title>
<path style="fill:none;stroke:#eb8971;" d="M535,-172C505,-165 465,-156 430,-146 384,-132 373,-127 327,-110 325,-109 323,-108 321,-107"/>
<ellipse style="fill:none;stroke:#eb8971;" cx="539.119" cy="-173.03" rx="4.00001" ry="4.00001"/>
<polygon style="fill:#eb8971;stroke:#eb8971;" points="321.138,-107.061 313.828,-98.8878 316.569,-105.031 312,-103 312,-103 312,-103 316.569,-105.031 310.172,-107.112 321.138,-107.061 321.138,-107.061"/>
</g>
<!-- Resource -->
<g id="node15" class="node"><title>Resource</title>
<ellipse style="fill:none;stroke:black;" cx="390" cy="-92" rx="54.2008" ry="18"/>
<text text-anchor="middle" x="390" y="-87.9" style="font-family:Times New Roman;font-size:14.00;">Resource</text>
</g>
<!-- Article&#45;&gt;Resource -->
<g id="edge24" class="edge"><title>Article&#45;&gt;Resource</title>
<path style="fill:none;stroke:#d8981e;" d="M534,-173C511,-167 482,-159 458,-146 442,-138 428,-126 415,-116"/>
<ellipse style="fill:none;stroke:#d8981e;" cx="538.119" cy="-174.03" rx="4.00001" ry="4.00001"/>
<polygon style="fill:#d8981e;stroke:#d8981e;" points="415.071,-116.071 411.182,-105.818 411.536,-112.536 408,-109 408,-109 408,-109 411.536,-112.536 404.818,-112.182 415.071,-116.071 415.071,-116.071"/>
</g>
<!-- Trigger -->
<g id="node20" class="node"><title>Trigger</title>
<ellipse style="fill:none;stroke:black;" cx="1071" cy="-92" rx="43.7776" ry="18"/>
<text text-anchor="middle" x="1071" y="-87.9" style="font-family:Times New Roman;font-size:14.00;">Trigger</text>
</g>
<!-- Article&#45;&gt;Trigger -->
<g id="edge16" class="edge"><title>Article&#45;&gt;Trigger</title>
<path style="fill:none;stroke:#1b11ce;" d="M628,-176C660,-172 701,-168 738,-164 814,-155 834,-162 908,-146 951,-136 997,-120 1029,-109"/>
<ellipse style="fill:none;stroke:#1b11ce;" cx="623.969" cy="-176.504" rx="4.00001" ry="4.00001"/>
<polygon style="fill:#1b11ce;stroke:#1b11ce;" points="1029.72,-108.714 1040.67,-109.178 1034.36,-106.857 1039,-105 1039,-105 1039,-105 1034.36,-106.857 1037.33,-100.822 1029.72,-108.714 1029.72,-108.714"/>
</g>
<!-- Comment -->
<g id="node21" class="node"><title>Comment</title>
<ellipse style="fill:none;stroke:black;" cx="518" cy="-18" rx="57.1737" ry="18"/>
<text text-anchor="middle" x="518" y="-13.9" style="font-family:Times New Roman;font-size:14.00;">Comment</text>
</g>
<!-- Article&#45;&gt;Comment -->
<g id="edge28" class="edge"><title>Article&#45;&gt;Comment</title>
<path style="fill:none;stroke:#986242;" d="M538,-170C525,-164 512,-157 504,-146 482,-117 494,-74 505,-45"/>
<ellipse style="fill:none;stroke:#986242;" cx="541.323" cy="-171.424" rx="4.00002" ry="4.00002"/>
<polygon style="fill:#986242;stroke:#986242;" points="504.939,-45.1381 513.112,-37.8277 506.969,-40.5691 509,-36 509,-36 509,-36 506.969,-40.5691 504.888,-34.1723 504.939,-45.1381 504.939,-45.1381"/>
</g>
<!-- Article&#45;&gt;Comment -->
<g id="edge30" class="edge"><title>Article&#45;&gt;Comment</title>
<path style="fill:none;stroke:#7f32a6;" d="M558,-159C547,-146 535,-128 527,-110 519,-89 518,-65 517,-46"/>
<ellipse style="fill:none;stroke:#7f32a6;" cx="561.172" cy="-162.172" rx="4.00002" ry="4.00002"/>
<polygon style="fill:#7f32a6;stroke:#7f32a6;" points="517,-46 521.5,-36 517,-41 517,-36 517,-36 517,-36 517,-41 512.5,-36 517,-46 517,-46"/>
<text text-anchor="middle" x="602" y="-87.9" style="font-family:Times New Roman;font-size:14.00;">published_comments</text>
</g>
<!-- Feedback -->
<g id="node24" class="node"><title>Feedback</title>
<ellipse style="fill:none;stroke:black;" cx="734" cy="-92" rx="55.0898" ry="18"/>
<text text-anchor="middle" x="734" y="-87.9" style="font-family:Times New Roman;font-size:14.00;">Feedback</text>
</g>
<!-- Article&#45;&gt;Feedback -->
<g id="edge22" class="edge"><title>Article&#45;&gt;Feedback</title>
<path style="fill:none;stroke:#59e3a6;" d="M601,-159C611,-148 624,-136 638,-128 652,-120 667,-113 682,-107"/>
<ellipse style="fill:none;stroke:#59e3a6;" cx="597.828" cy="-162.172" rx="4.00002" ry="4.00002"/>
<polygon style="fill:#59e3a6;stroke:#59e3a6;" points="682.422,-106.874 693.293,-108.31 687.211,-105.437 692,-104 692,-104 692,-104 687.211,-105.437 690.707,-99.6898 682.422,-106.874 682.422,-106.874"/>
</g>
<!-- Article&#45;&gt;Feedback -->
<g id="edge34" class="edge"><title>Article&#45;&gt;Feedback</title>
<path style="fill:none;stroke:#2de912;" d="M612,-164C637,-149 672,-129 698,-113"/>
<ellipse style="fill:none;stroke:#2de912;" cx="608.473" cy="-166.015" rx="4.00002" ry="4.00002"/>
<polygon style="fill:#2de912;stroke:#2de912;" points="698.258,-112.856 709.185,-111.934 702.629,-110.428 707,-108 707,-108 707,-108 702.629,-110.428 704.815,-104.066 698.258,-112.856 698.258,-112.856"/>
<text text-anchor="middle" x="739" y="-132.9" style="font-family:Times New Roman;font-size:14.00;">published_feedback</text>
</g>
<!-- Content&#45;&gt;Redirection -->
<g id="edge44" class="edge"><title>Content&#45;&gt;Redirection</title>
<path style="fill:none;stroke:#e80485;" d="M732,-338C702,-332 665,-324 633,-310 616,-302 598,-290 584,-279"/>
<ellipse style="fill:none;stroke:#e80485;" cx="736.119" cy="-339.03" rx="4.00001" ry="4.00001"/>
<polygon style="fill:#e80485;stroke:#e80485;" points="584,-279 578.7,-269.4 580,-276 576,-273 576,-273 576,-273 580,-276 573.3,-276.6 584,-279 584,-279"/>
</g>
<!-- Content&#45;&gt;Article -->
<g id="edge38" class="edge"><title>Content&#45;&gt;Article</title>
<path style="fill:none;stroke:black;" d="M731,-337C712,-331 690,-323 674,-310 644,-286 651,-268 628,-238 618,-224 606,-210 596,-199"/>
<polygon style="fill:none;stroke:black;" points="730.508,-340.471 741,-339 731.881,-333.607 730.508,-340.471"/>
</g>
<!-- User -->
<g id="node13" class="node"><title>User</title>
<ellipse style="fill:none;stroke:black;" cx="747" cy="-256" rx="32.8565" ry="18"/>
<text text-anchor="middle" x="747" y="-251.9" style="font-family:Times New Roman;font-size:14.00;">User</text>
</g>
<!-- Content&#45;&gt;User -->
<g id="edge42" class="edge"><title>Content&#45;&gt;User</title>
<path style="fill:none;stroke:#bc75b3;" d="M734,-334C711,-328 688,-320 681,-310 670,-293 689,-279 710,-270"/>
<polygon style="fill:#bc75b3;stroke:#bc75b3;" points="734.422,-334.126 742.707,-341.31 739.211,-335.563 744,-337 744,-337 744,-337 739.211,-335.563 745.293,-332.69 734.422,-334.126 734.422,-334.126"/>
<polygon style="fill:#bc75b3;stroke:#bc75b3;" points="709.862,-270.061 720.828,-270.112 714.431,-268.031 719,-266 719,-266 719,-266 714.431,-268.031 717.172,-261.888 709.862,-270.061 709.862,-270.061"/>
<text text-anchor="middle" x="726" y="-296.9" style="font-family:Times New Roman;font-size:14.00;">notify_users</text>
</g>
<!-- Content&#45;&gt;Trigger -->
<g id="edge46" class="edge"><title>Content&#45;&gt;Trigger</title>
<path style="fill:none;stroke:#864582;" d="M832,-331C837,-330 842,-329 846,-328 939,-308 1000,-352 1052,-274 1084,-227 1081,-158 1076,-120"/>
<ellipse style="fill:none;stroke:#864582;" cx="827.745" cy="-332.595" rx="4.00001" ry="4.00001"/>
<polygon style="fill:#864582;stroke:#864582;" points="1075.96,-119.806 1078.41,-109.117 1074.98,-114.903 1074,-110 1074,-110 1074,-110 1074.98,-114.903 1069.59,-110.883 1075.96,-119.806 1075.96,-119.806"/>
</g>
<!-- Content&#45;&gt;Feedback -->
<g id="edge58" class="edge"><title>Content&#45;&gt;Feedback</title>
<path style="fill:none;stroke:black;" d="M835,-331C868,-322 905,-310 905,-310 944,-257 928,-215 888,-164 862,-130 816,-111 781,-102"/>
<polygon style="fill:none;stroke:black;" points="833.573,-327.774 825,-334 835.584,-334.479 833.573,-327.774"/>
</g>
<!-- Page -->
<g id="node26" class="node"><title>Page</title>
<ellipse style="fill:none;stroke:black;" cx="1009" cy="-256" rx="34.0492" ry="18"/>
<text text-anchor="middle" x="1009" y="-251.9" style="font-family:Times New Roman;font-size:14.00;">Page</text>
</g>
<!-- Content&#45;&gt;Page -->
<g id="edge60" class="edge"><title>Content&#45;&gt;Page</title>
<path style="fill:none;stroke:black;" d="M834,-331C838,-330 842,-329 846,-328 897,-316 916,-334 961,-310 977,-301 990,-285 998,-273"/>
<polygon style="fill:none;stroke:black;" points="832.573,-327.774 824,-334 834.584,-334.479 832.573,-327.774"/>
</g>
<!-- Notification -->
<g id="node32" class="node"><title>Notification</title>
<ellipse style="fill:none;stroke:black;" cx="813" cy="-182" rx="66.0138" ry="18"/>
<text text-anchor="middle" x="813" y="-177.9" style="font-family:Times New Roman;font-size:14.00;">Notification</text>
</g>
<!-- Content&#45;&gt;Notification -->
<g id="edge40" class="edge"><title>Content&#45;&gt;Notification</title>
<path style="fill:none;stroke:#1a5a38;" d="M833,-332C858,-324 884,-315 887,-310 912,-275 873,-232 844,-206"/>
<ellipse style="fill:none;stroke:#1a5a38;" cx="828.881" cy="-333.03" rx="4.00001" ry="4.00001"/>
<polygon style="fill:#1a5a38;stroke:#1a5a38;" points="843.526,-205.585 838.963,-195.613 839.763,-202.293 836,-199 836,-199 836,-199 839.763,-202.293 833.037,-202.387 843.526,-205.585 843.526,-205.585"/>
</g>
<!-- User&#45;&gt;Article -->
<g id="edge52" class="edge"><title>User&#45;&gt;Article</title>
<path style="fill:none;stroke:#912464;" d="M714,-242C686,-229 647,-212 618,-199"/>
<ellipse style="fill:none;stroke:#912464;" cx="717.323" cy="-243.424" rx="4.00002" ry="4.00002"/>
<polygon style="fill:#912464;stroke:#912464;" points="618.138,-199.061 610.828,-190.888 613.569,-197.031 609,-195 609,-195 609,-195 613.569,-197.031 607.172,-199.112 618.138,-199.061 618.138,-199.061"/>
</g>
<!-- User&#45;&gt;Content -->
<g id="edge50" class="edge"><title>User&#45;&gt;Content</title>
<path style="fill:none;stroke:#4aac09;" d="M761,-283C762,-286 764,-289 765,-292 769,-301 773,-310 776,-319"/>
<polygon style="fill:#4aac09;stroke:#4aac09;" points="760.856,-282.742 759.934,-271.815 758.428,-278.371 756,-274 756,-274 756,-274 758.428,-278.371 752.066,-276.185 760.856,-282.742 760.856,-282.742"/>
<polygon style="fill:#4aac09;stroke:#4aac09;" points="775.939,-318.862 775.888,-329.828 777.969,-323.431 780,-328 780,-328 780,-328 777.969,-323.431 784.112,-326.172 775.939,-318.862 775.939,-318.862"/>
<text text-anchor="middle" x="830" y="-296.9" style="font-family:Times New Roman;font-size:14.00;">notify_contents</text>
</g>
<!-- User&#45;&gt;Notification -->
<g id="edge48" class="edge"><title>User&#45;&gt;Notification</title>
<path style="fill:none;stroke:#ed9ebc;" d="M767,-234C775,-226 783,-216 791,-208"/>
<ellipse style="fill:none;stroke:#ed9ebc;" cx="764.561" cy="-236.927" rx="4.00002" ry="4.00002"/>
<polygon style="fill:#ed9ebc;stroke:#ed9ebc;" points="791,-208 800.6,-202.7 794,-204 797,-200 797,-200 797,-200 794,-204 793.4,-197.3 791,-208 791,-208"/>
</g>
<!-- Theme -->
<g id="node14" class="node"><title>Theme</title>
<polygon style="fill:none;stroke:black;" points="1277,-467 1215,-467 1215,-431 1277,-431 1277,-467"/>
<text text-anchor="middle" x="1246" y="-444.9" style="font-family:Times New Roman;font-size:14.00;">Theme</text>
</g>
<!-- NotificationMailer -->
<g id="node16" class="node"><title>NotificationMailer</title>
<polygon style="fill:none;stroke:black;" points="1463,-364 1327,-364 1327,-328 1463,-328 1463,-364"/>
<text text-anchor="middle" x="1395" y="-341.9" style="font-family:Times New Roman;font-size:14.00;">NotificationMailer</text>
</g>
<!-- Feedback::States -->
<g id="node17" class="node"><title>Feedback::States</title>
<polygon style="fill:none;stroke:black;stroke-dasharray:1,5;" points="1645,-467 1513,-467 1513,-431 1645,-431 1645,-467"/>
<text text-anchor="middle" x="1579" y="-444.9" style="font-family:Times New Roman;font-size:14.00;">Feedback::States</text>
</g>
<!-- Article::States -->
<g id="node18" class="node"><title>Article::States</title>
<polygon style="fill:none;stroke:black;stroke-dasharray:1,5;" points="1777,-467 1663,-467 1663,-431 1777,-431 1777,-467"/>
<text text-anchor="middle" x="1720" y="-444.9" style="font-family:Times New Roman;font-size:14.00;">Article::States</text>
</g>
<!-- PostType -->
<g id="node19" class="node"><title>PostType</title>
<ellipse style="fill:none;stroke:black;" cx="1848" cy="-449" rx="53.0059" ry="18"/>
<text text-anchor="middle" x="1848" y="-444.9" style="font-family:Times New Roman;font-size:14.00;">PostType</text>
</g>
<!-- PageCache -->
<g id="node22" class="node"><title>PageCache</title>
<polygon style="fill:none;stroke:black;" points="2009,-467 1919,-467 1919,-431 2009,-431 2009,-467"/>
<text text-anchor="middle" x="1964" y="-444.9" style="font-family:Times New Roman;font-size:14.00;">PageCache</text>
</g>
<!-- Sidebar -->
<g id="node23" class="node"><title>Sidebar</title>
<ellipse style="fill:none;stroke:black;" cx="2074" cy="-449" rx="46.7546" ry="18"/>
<text text-anchor="middle" x="2074" y="-444.9" style="font-family:Times New Roman;font-size:14.00;">Sidebar</text>
</g>
<!-- Feedback&#45;&gt;Trackback -->
<g id="edge10" class="edge"><title>Feedback&#45;&gt;Trackback</title>
<path style="fill:none;stroke:black;" d="M763,-68C776,-58 792,-45 804,-35"/>
<polygon style="fill:none;stroke:black;" points="760.221,-65.7809 755,-75 764.831,-71.0489 760.221,-65.7809"/>
</g>
<!-- Feedback&#45;&gt;Comment -->
<g id="edge56" class="edge"><title>Feedback&#45;&gt;Comment</title>
<path style="fill:none;stroke:black;" d="M686,-76C648,-63 593,-44 557,-31"/>
<polygon style="fill:none;stroke:black;" points="685.416,-79.4788 696,-79 687.427,-72.7741 685.416,-79.4788"/>
</g>
<!-- TextFilter -->
<g id="node25" class="node"><title>TextFilter</title>
<ellipse style="fill:none;stroke:black;" cx="2195" cy="-449" rx="55.7874" ry="18"/>
<text text-anchor="middle" x="2195" y="-444.9" style="font-family:Times New Roman;font-size:14.00;">TextFilter</text>
</g>
<!-- Blog -->
<g id="node27" class="node"><title>Blog</title>
<ellipse style="fill:none;stroke:black;" cx="2301" cy="-449" rx="31.9646" ry="18"/>
<text text-anchor="middle" x="2301" y="-444.9" style="font-family:Times New Roman;font-size:14.00;">Blog</text>
</g>
<!-- BlogSweeper -->
<g id="node28" class="node"><title>BlogSweeper</title>
<polygon style="fill:none;stroke:black;" points="2586,-364 2480,-364 2480,-328 2586,-328 2586,-364"/>
<text text-anchor="middle" x="2533" y="-341.9" style="font-family:Times New Roman;font-size:14.00;">BlogSweeper</text>
</g>
<!-- Right -->
<g id="node29" class="node"><title>Right</title>
<ellipse style="fill:none;stroke:black;" cx="896" cy="-449" rx="36.8288" ry="18"/>
<text text-anchor="middle" x="896" y="-444.9" style="font-family:Times New Roman;font-size:14.00;">Right</text>
</g>
<!-- Right&#45;&gt;Profile -->
<g id="edge64" class="edge"><title>Right&#45;&gt;Profile</title>
<path style="fill:none;stroke:#59a2ec;" d="M896,-421C896,-407 896,-389 896,-374"/>
<polygon style="fill:#59a2ec;stroke:#59a2ec;" points="896,-421 891.5,-431 896,-426 896,-431 896,-431 896,-431 896,-426 900.5,-431 896,-421 896,-421"/>
<polygon style="fill:#59a2ec;stroke:#59a2ec;" points="896,-374 900.5,-364 896,-369 896,-364 896,-364 896,-364 896,-369 891.5,-364 896,-374 896,-374"/>
</g>
<!-- ConfigManager -->
<g id="node30" class="node"><title>ConfigManager</title>
<polygon style="fill:none;stroke:black;stroke-dasharray:1,5;" points="2853,-467 2733,-467 2733,-431 2853,-431 2853,-467"/>
<text text-anchor="middle" x="2793" y="-444.9" style="font-family:Times New Roman;font-size:14.00;">ConfigManager</text>
</g>
<!-- WebNotifier -->
<g id="node31" class="node"><title>WebNotifier</title>
<polygon style="fill:none;stroke:black;" points="1209,-364 1111,-364 1111,-328 1209,-328 1209,-364"/>
<text text-anchor="middle" x="1160" y="-341.9" style="font-family:Times New Roman;font-size:14.00;">WebNotifier</text>
</g>
<!-- ActiveRecord::Observer -->
<g id="node36" class="node"><title>ActiveRecord::Observer</title>
<ellipse style="fill:none;stroke:black;" cx="1074" cy="-449" rx="122.994" ry="18"/>
<text text-anchor="middle" x="1074" y="-444.9" style="font-family:Times New Roman;font-size:14.00;">ActiveRecord::Observer</text>
</g>
<!-- ActiveRecord::Observer&#45;&gt;EmailNotifier -->
<g id="edge8" class="edge"><title>ActiveRecord::Observer&#45;&gt;EmailNotifier</title>
<path style="fill:none;stroke:black;" d="M1065,-421C1059,-403 1052,-380 1047,-364"/>
<polygon style="fill:none;stroke:black;" points="1061.77,-422.427 1068,-431 1068.48,-420.416 1061.77,-422.427"/>
</g>
<!-- ActiveRecord::Observer&#45;&gt;WebNotifier -->
<g id="edge66" class="edge"><title>ActiveRecord::Observer&#45;&gt;WebNotifier</title>
<path style="fill:none;stroke:black;" d="M1096,-423C1111,-405 1131,-380 1145,-364"/>
<polygon style="fill:none;stroke:black;" points="1092.95,-421.169 1089,-431 1098.22,-425.779 1092.95,-421.169"/>
</g>
<!-- ActionMailer::Base -->
<g id="node60" class="node"><title>ActionMailer::Base</title>
<ellipse style="fill:none;stroke:black;" cx="1395" cy="-449" rx="100.063" ry="18"/>
<text text-anchor="middle" x="1395" y="-444.9" style="font-family:Times New Roman;font-size:14.00;">ActionMailer::Base</text>
</g>
<!-- ActionMailer::Base&#45;&gt;NotificationMailer -->
<g id="edge54" class="edge"><title>ActionMailer::Base&#45;&gt;NotificationMailer</title>
<path style="fill:none;stroke:black;" d="M1395,-421C1395,-403 1395,-380 1395,-364"/>
<polygon style="fill:none;stroke:black;" points="1391.5,-421 1395,-431 1398.5,-421 1391.5,-421"/>
</g>
<!-- ActionController::Caching::Sweeper -->
<g id="node65" class="node"><title>ActionController::Caching::Sweeper</title>
<ellipse style="fill:none;stroke:black;" cx="2533" cy="-449" rx="182.059" ry="18"/>
<text text-anchor="middle" x="2533" y="-444.9" style="font-family:Times New Roman;font-size:14.00;">ActionController::Caching::Sweeper</text>
</g>
<!-- ActionController::Caching::Sweeper&#45;&gt;BlogSweeper -->
<g id="edge62" class="edge"><title>ActionController::Caching::Sweeper&#45;&gt;BlogSweeper</title>
<path style="fill:none;stroke:black;" d="M2533,-421C2533,-403 2533,-380 2533,-364"/>
<polygon style="fill:none;stroke:black;" points="2529.5,-421 2533,-431 2536.5,-421 2529.5,-421"/>
</g>
</g>
</svg>
